<?xml version="1.0" encoding="UTF-8" standalone="no"?>
<!-- Created with Inkscape (http://www.inkscape.org/) -->

<svg
   xmlns:dc="http://purl.org/dc/elements/1.1/"
   xmlns:cc="http://creativecommons.org/ns#"
   xmlns:rdf="http://www.w3.org/1999/02/22-rdf-syntax-ns#"
   xmlns:svg="http://www.w3.org/2000/svg"
   xmlns="http://www.w3.org/2000/svg"
   xmlns:sodipodi="http://sodipodi.sourceforge.net/DTD/sodipodi-0.dtd"
   xmlns:inkscape="http://www.inkscape.org/namespaces/inkscape"
   width="793.70081"
   height="400"
   viewBox="0 0 210 105.83334"
   version="1.1"
   id="svg186"
   inkscape:version="0.92.5 (2060ec1f9f, 2020-04-08)"
   sodipodi:docname="logo_fun1.svg">
  <defs
     id="defs180">
    <pattern
       id="EMFhbasepattern"
       patternUnits="userSpaceOnUse"
       width="6"
       height="6"
       x="0"
       y="0" />
    <pattern
       id="EMFhbasepattern-3"
       patternUnits="userSpaceOnUse"
       width="6"
       height="6"
       x="0"
       y="0" />
    <pattern
       id="EMFhbasepattern-2"
       patternUnits="userSpaceOnUse"
       width="6"
       height="6"
       x="0"
       y="0" />
    <pattern
       id="EMFhbasepattern-1"
       patternUnits="userSpaceOnUse"
       width="6"
       height="6"
       x="0"
       y="0" />
    <pattern
       id="EMFhbasepattern-5"
       patternUnits="userSpaceOnUse"
       width="6"
       height="6"
       x="0"
       y="0" />
    <filter
       inkscape:label="Chalk and Sponge"
       inkscape:menu="Distort"
       inkscape:menu-tooltip="Low turbulence gives sponge look and high turbulence chalk"
       width="1.6"
       height="2"
       y="-0.5"
       x="-0.3"
       style="color-interpolation-filters:sRGB;"
       id="filter5500">
      <feTurbulence
         baseFrequency="0.4"
         type="fractalNoise"
         seed="0"
         numOctaves="5"
         result="result1"
         id="feTurbulence5496" />
      <feDisplacementMap
         xChannelSelector="R"
         yChannelSelector="G"
         scale="30"
         in="SourceGraphic"
         in2="result1"
         id="feDisplacementMap5498" />
    </filter>
    <filter
       inkscape:label="Basic Diffuse Bump"
       inkscape:menu="Bumps"
       inkscape:menu-tooltip="Matte emboss effect"
       style="color-interpolation-filters:sRGB;"
       id="filter6950">
      <feColorMatrix
         result="result2"
         type="luminanceToAlpha"
         in="SourceGraphic"
         id="feColorMatrix6940" />
      <feDiffuseLighting
         lighting-color="#ffffff"
         in="result2"
         diffuseConstant="0.5"
         result="result1"
         surfaceScale="15"
         id="feDiffuseLighting6944">
        <feDistantLight
           azimuth="225"
           elevation="10"
           id="feDistantLight6942" />
      </feDiffuseLighting>
      <feComposite
         result="result9"
         operator="arithmetic"
         k2="1"
         k3="0.8"
         in2="SourceGraphic"
         id="feComposite6946" />
      <feComposite
         in2="SourceGraphic"
         result="result7"
         operator="in"
         in="result9"
         id="feComposite6948" />
    </filter>
    <filter
       style="color-interpolation-filters:sRGB"
       inkscape:label="Deep Chrome"
       inkscape:menu-tooltip="Dark chrome effect"
       inkscape:menu="Non-realistic 3D Shaders"
       height="1.5"
       y="-0.25"
       width="1.5"
       x="-0.25"
       id="filter1967">
      <feGaussianBlur
         result="result8"
         stdDeviation="5"
         in="SourceGraphic"
         id="feGaussianBlur1949" />
      <feComposite
         result="result19"
         operator="xor"
         in2="result8"
         id="feComposite1951" />
      <feComposite
         in2="result8"
         result="result17"
         operator="arithmetic"
         k2="1"
         id="feComposite1953" />
      <feOffset
         in="result8"
         result="result18"
         id="feOffset1955" />
      <feDisplacementMap
         result="result4"
         scale="100"
         yChannelSelector="A"
         xChannelSelector="A"
         in="result18"
         in2="result17"
         id="feDisplacementMap1957" />
      <feComposite
         k3="1"
         k1="1"
         in="SourceGraphic"
         operator="arithmetic"
         result="result2"
         in2="result4"
         id="feComposite1959" />
      <feComposite
         operator="in"
         in="result2"
         result="fbSourceGraphic"
         in2="SourceGraphic"
         id="feComposite1961" />
      <feComposite
         result="result15"
         operator="in"
         in2="SourceGraphic"
         id="feComposite1963" />
      <feComposite
         in="result15"
         operator="in"
         in2="SourceGraphic"
         result="result16"
         id="feComposite1965" />
    </filter>
  </defs>
  <sodipodi:namedview
     id="base"
     pagecolor="#ffffff"
     bordercolor="#666666"
     borderopacity="1.0"
     inkscape:pageopacity="0.0"
     inkscape:pageshadow="2"
     inkscape:zoom="0.5"
     inkscape:cx="1308.6967"
     inkscape:cy="205.77533"
     inkscape:document-units="mm"
     inkscape:current-layer="layer1"
     showgrid="false"
     units="px"
     inkscape:window-width="1920"
     inkscape:window-height="1049"
     inkscape:window-x="1920"
     inkscape:window-y="0"
     inkscape:window-maximized="1" />
  <metadata
     id="metadata183">
    <rdf:RDF>
      <cc:Work
         rdf:about="">
        <dc:format>image/svg+xml</dc:format>
        <dc:type
           rdf:resource="http://purl.org/dc/dcmitype/StillImage" />
        <dc:title></dc:title>
      </cc:Work>
    </rdf:RDF>
  </metadata>
  <g
     inkscape:label="Layer 1"
     inkscape:groupmode="layer"
     id="layer1"
     transform="translate(0,-191.16665)">
    <flowRoot
       xml:space="preserve"
       id="flowRoot286"
       style="fill:black;fill-opacity:1;stroke:none;font-family:Roboto;font-style:normal;font-weight:normal;font-size:40px;line-height:1.25;letter-spacing:0px;word-spacing:0px;-inkscape-font-specification:'Roboto, Normal';font-stretch:normal;font-variant:normal;text-anchor:start;text-align:start;writing-mode:lr;font-variant-ligatures:normal;font-variant-caps:normal;font-variant-numeric:normal;font-feature-settings:normal"><flowRegion
         id="flowRegion288"><rect
           id="rect290"
           width="836.5"
           height="74.5"
           x="401.5"
           y="128" /></flowRegion><flowPara
         id="flowPara292" /></flowRoot>    <flowRoot
       xml:space="preserve"
       id="flowRoot294"
       style="fill:black;fill-opacity:1;stroke:none;font-family:Roboto;font-style:normal;font-weight:normal;font-size:40px;line-height:1.25;letter-spacing:0px;word-spacing:0px;-inkscape-font-specification:'Roboto, Normal';font-stretch:normal;font-variant:normal;text-anchor:start;text-align:start;writing-mode:lr;font-variant-ligatures:normal;font-variant-caps:normal;font-variant-numeric:normal;font-feature-settings:normal"><flowRegion
         id="flowRegion296"><rect
           id="rect298"
           width="328.5"
           height="65.5"
           x="366"
           y="85.5" /></flowRegion><flowPara
         id="flowPara300" /></flowRoot>    <flowRoot
       xml:space="preserve"
       id="flowRoot302"
       style="fill:black;fill-opacity:1;stroke:none;font-family:Roboto;font-style:normal;font-weight:normal;font-size:40px;line-height:1.25;letter-spacing:0px;word-spacing:0px;-inkscape-font-specification:'Roboto, Normal';font-stretch:normal;font-variant:normal;text-anchor:start;text-align:start;writing-mode:lr;font-variant-ligatures:normal;font-variant-caps:normal;font-variant-numeric:normal;font-feature-settings:normal"><flowRegion
         id="flowRegion304"><rect
           id="rect306"
           width="309"
           height="123"
           x="375"
           y="63" /></flowRegion><flowPara
         id="flowPara308" /></flowRoot>    <path
       inkscape:connector-curvature="0"
       id="path872"
       style="font-style:normal;font-variant:normal;font-weight:500;font-stretch:normal;font-size:47.38941956px;line-height:1.25;font-family:aakar;-inkscape-font-specification:'aakar, Medium';font-variant-ligatures:normal;font-variant-caps:normal;font-variant-numeric:normal;font-feature-settings:normal;text-align:start;letter-spacing:0px;word-spacing:0px;writing-mode:lr-tb;text-anchor:start;fill:#c45353;fill-opacity:1;stroke:none;stroke-width:0.77408475"
       d="m 65.517509,205.79377 v -1.60638 h 21.532677 q 7.767144,0 12.535094,2.19819 7.61335,3.46641 7.61335,12.09011 0,6.08735 -3.76823,9.21555 -2.15326,1.7755 -6.459805,2.95912 5.690785,1.43732 8.920695,4.5655 3.92201,3.80458 3.92201,10.06102 0,6.84827 -5.15245,10.99103 -4.84486,3.88914 -13.457935,3.88914 H 65.517509 v -1.60641 q 4.691046,0 5.998388,-1.43728 1.384245,-1.52183 1.384245,-6.17187 v -37.53855 q 0,-4.73457 -1.307342,-6.17189 -1.307341,-1.43728 -6.075291,-1.43728 z m 15.226677,26.80117 v 20.96749 q 0,2.19818 1.153538,2.87457 1.153536,0.59183 4.691048,0.59183 5.76768,0 9.074484,-1.77548 5.306264,-2.87458 5.306264,-10.31464 0,-4.73459 -2.38398,-7.60916 -1.922554,-2.28279 -5.383164,-3.46642 -2.076363,-0.67637 -4.767947,-0.92999 -2.614682,-0.3382 -7.690243,-0.3382 z m 0,-22.74295 v 19.36109 h 7.305731 q 3.998925,0 6.459804,-1.2682 4.844849,-2.45184 4.844849,-8.96189 0,-6.67914 -4.691046,-9.55372 -3.383706,-2.11366 -8.766876,-2.11366 H 82.43604 q -0.99973,0 -1.384242,0.7609 -0.307612,0.6764 -0.307612,1.77548 z" />
    <path
       inkscape:connector-curvature="0"
       id="path874"
       style="font-style:normal;font-variant:normal;font-weight:500;font-stretch:normal;font-size:47.38941956px;line-height:1.25;font-family:aakar;-inkscape-font-specification:'aakar, Medium';font-variant-ligatures:normal;font-variant-caps:normal;font-variant-numeric:normal;font-feature-settings:normal;text-align:start;letter-spacing:0px;word-spacing:0px;writing-mode:lr-tb;text-anchor:start;fill:#c45353;fill-opacity:1;stroke:none;stroke-width:0.32506284"
       d="m 118.62018,243.88595 q 3.74205,0 6.03916,1.91865 2.2971,1.91863 2.2971,5.26081 0,2.66135 -2.0007,4.82756 -2.33416,2.53756 -6.2244,2.53756 -3.55681,0 -5.85391,-2.07338 -2.26005,-2.10431 -2.26005,-5.29174 0,-3.00176 2.11185,-5.01325 2.26005,-2.16621 5.89095,-2.16621 z m 0.62985,13.6781 q 1.74135,0 2.88991,-1.11405 1.482,-1.45447 1.482,-4.48717 0,-3.00176 -1.4079,-5.10607 -1.4079,-2.10432 -3.89026,-2.10432 -1.8525,0 -3.11219,1.26877 -1.25971,1.23784 -1.25971,3.55879 0,2.6923 0.9633,4.82756 1.4079,3.15649 4.33485,3.15649 z" />
    <path
       inkscape:connector-curvature="0"
       id="path876"
       style="font-style:normal;font-variant:normal;font-weight:500;font-stretch:normal;font-size:47.38941956px;line-height:1.25;font-family:aakar;-inkscape-font-specification:'aakar, Medium';font-variant-ligatures:normal;font-variant-caps:normal;font-variant-numeric:normal;font-feature-settings:normal;text-align:start;letter-spacing:0px;word-spacing:0px;writing-mode:lr-tb;text-anchor:start;fill:#c45353;fill-opacity:1;stroke:none;stroke-width:0.30984223"
       d="m 136.86321,243.79403 q 3.37848,0 5.45239,1.93077 2.07391,1.93077 2.07391,5.29406 0,2.67817 -1.80631,4.85807 -2.10736,2.5536 -5.61964,2.5536 -3.21122,0 -5.28514,-2.08648 -2.04046,-2.11761 -2.04046,-5.32519 0,-3.02072 1.90666,-5.04492 2.04047,-2.17991 5.31859,-2.17991 z m 0.56866,13.76454 q 1.57216,0 2.60911,-1.12109 1.33802,-1.46365 1.33802,-4.51552 0,-3.02073 -1.27111,-5.13834 -1.27111,-2.11762 -3.51228,-2.11762 -1.67251,0 -2.80982,1.27679 -1.13731,1.24566 -1.13731,3.58129 0,2.7093 0.86971,4.85806 1.27111,3.17643 3.91368,3.17643 z" />
    <path
       inkscape:connector-curvature="0"
       id="path878"
       style="font-style:normal;font-variant:normal;font-weight:500;font-stretch:normal;font-size:47.38941956px;line-height:1.25;font-family:aakar;-inkscape-font-specification:'aakar, Medium';font-variant-ligatures:normal;font-variant-caps:normal;font-variant-numeric:normal;font-feature-settings:normal;text-align:start;letter-spacing:0px;word-spacing:0px;writing-mode:lr-tb;text-anchor:start;fill:#c45353;fill-opacity:1;stroke:none;stroke-width:0.38158292"
       d="m 144.84025,258.60918 v -0.52144 q 2.36337,-0.27809 2.86333,-0.62572 0.54538,-0.34762 0.54538,-1.70334 v -16.75534 q 0,-1.25144 -0.3636,-1.66858 -0.36359,-0.45192 -1.68162,-0.45192 l -1.36349,0.0696 v -0.55619 q 1.72708,-0.34763 3.27237,-0.66049 1.54527,-0.31286 3.7723,-0.86905 l 0.18181,0.0696 v 14.46104 l 0.0908,0.0696 6.13569,-4.17146 q 1.04534,-0.72999 1.04534,-1.1819 0,-0.34763 -0.45449,-0.48668 -0.40905,-0.17381 -1.81798,-0.17381 v -0.48666 h 9.2717 v 0.52143 q -2.18158,0 -3.49961,0.52143 -2.04523,0.79953 -6.31748,3.8586 l -1.31804,0.93857 6.95377,6.74386 q 1.54528,1.46 3.04512,2.08572 1.13624,0.45191 2.27248,0.45191 v 0.52143 h -9.908 v -0.52143 h 0.86354 q 0.95444,0 0.95444,-0.55619 0,-0.13905 -0.40905,-0.52144 -0.3636,-0.41714 -0.54539,-0.62571 l -6.27204,-6.39624 -0.0908,6.29195 q 0,1.00811 0.63628,1.39048 0.6363,0.38239 1.86344,0.38239 l 0.90899,0.0348 v 0.52142 z" />
    <path
       inkscape:connector-curvature="0"
       id="path880"
       style="font-style:normal;font-variant:normal;font-weight:500;font-stretch:normal;font-size:47.38941956px;line-height:1.25;font-family:aakar;-inkscape-font-specification:'aakar, Medium';font-variant-ligatures:normal;font-variant-caps:normal;font-variant-numeric:normal;font-feature-settings:normal;text-align:start;letter-spacing:0px;word-spacing:0px;writing-mode:lr-tb;text-anchor:start;fill:#c45353;fill-opacity:1;stroke:none;stroke-width:0.42775548"
       d="m 181.26282,254.33634 v -5.0405 q -5.65429,1.14715 -7.82462,2.64191 -1.42785,0.97335 -1.42785,2.22478 0,1.25144 1.08517,2.01621 1.08517,0.76477 2.68436,0.76477 0.85671,0 1.88476,-0.20858 1.02806,-0.20858 1.6563,-0.41715 1.25651,-0.34762 1.59921,-0.73 0.34267,-0.41715 0.34267,-1.25144 z m 8.85267,1.98144 v 0.90382 q -1.54207,1.11239 -3.08416,1.49477 -0.97094,0.24333 -1.999,0.24333 -1.42783,0 -2.22744,-0.31285 -1.48494,-0.59096 -1.48494,-2.22478 -2.11323,1.14715 -3.71242,1.70334 -2.3988,0.83429 -4.56912,0.83429 -2.45589,0 -4.28355,-0.97334 -1.77053,-0.97333 -1.77053,-2.64191 0,-2.36383 3.65529,-3.89336 2.51301,-1.04286 10.6232,-2.98955 v -2.12048 q 0,-1.63383 -1.54208,-2.36383 -1.14227,-0.52143 -2.85569,-0.52143 -1.54209,0 -2.79859,0.48667 -1.2565,0.45191 -1.2565,1.21667 0,0.34763 0.0571,0.73001 0.11428,0.34762 0.22845,0.62571 0,0.59097 -0.74248,1.04287 -0.74249,0.4519 -1.82764,0.4519 -1.1994,0 -1.82766,-0.48666 -0.62825,-0.52144 -0.62825,-1.04287 0,-1.2862 2.17032,-2.43334 2.68436,-1.42525 7.13927,-1.42525 5.54005,0 7.4248,1.98144 1.08517,1.14715 1.08517,3.5805 v 6.77861 q 0,1.07763 0.22846,1.56429 0.28556,0.45192 1.42784,0.45192 0.7996,0 1.37074,-0.17382 0.57115,-0.17381 1.19939,-0.48667 z" />
    <g
       style="opacity:1;fill:#ff8080;stroke:#bd6161;stroke-opacity:1"
       id="g6769"
       transform="matrix(0.4873838,0,-0.01812799,0.73968025,9.141633,183.31895)">
      <path
         id="path6707"
         d="M 11.6125,101.334 H 116.56 c 0,1.937 -1.57,3.507 -3.507,3.507 H 15.1191 c -1.9366,0 -3.5066,-1.57 -3.5066,-3.507 z"
         inkscape:connector-curvature="0"
         style="fill:#ff8080;stroke:#bd6161;stroke-opacity:1" />
      <rect
         id="rect6709"
         rx="2.7533"
         height="5.5065899"
         width="110.907"
         y="96.201797"
         x="8.5463896"
         style="fill:#ff8080;stroke:#bd6161;stroke-width:2;stroke-opacity:1" />
      <rect
         id="rect6711"
         rx="5"
         height="69.841003"
         width="21.318399"
         y="25.144899"
         x="12.2146"
         style="fill:#ff8080;stroke:#bd6161;stroke-width:2;stroke-linecap:round;stroke-linejoin:round;stroke-opacity:1" />
      <rect
         id="rect6713"
         rx="5"
         height="69.841003"
         width="21.318399"
         y="25.144899"
         x="33.910198"
         style="fill:#ff8080;stroke:#bd6161;stroke-width:2;stroke-linecap:round;stroke-linejoin:round;stroke-opacity:1" />
      <ellipse
         id="ellipse6715"
         ry="5.8543"
         rx="4.04636"
         cy="65.9198"
         cx="22.804701"
         style="fill:#ff8080;stroke:#bd6161;stroke-width:2;stroke-opacity:1" />
      <ellipse
         id="ellipse6717"
         ry="5.8543"
         rx="4.04636"
         cy="65.9198"
         cx="44.569302"
         style="fill:#ff8080;stroke:#bd6161;stroke-width:2;stroke-opacity:1" />
      <path
         id="path6719"
         d="M 12.6458,38.4561 H 32.7914"
         inkscape:connector-curvature="0"
         style="fill:#ff8080;stroke:#bd6161;stroke-width:2;stroke-linecap:round;stroke-linejoin:round;stroke-opacity:1" />
      <path
         id="path6721"
         d="M 12.6455,42.933 H 32.7912"
         inkscape:connector-curvature="0"
         style="fill:#ff8080;stroke:#bd6161;stroke-width:2;stroke-linecap:round;stroke-linejoin:round;stroke-opacity:1" />
      <path
         id="path6723"
         d="M 34.4963,38.4561 H 54.642"
         inkscape:connector-curvature="0"
         style="fill:#ff8080;stroke:#bd6161;stroke-width:2;stroke-linecap:round;stroke-linejoin:round;stroke-opacity:1" />
      <path
         id="path6725"
         d="M 34.4966,42.933 H 54.6423"
         inkscape:connector-curvature="0"
         style="fill:#ff8080;stroke:#bd6161;stroke-width:2;stroke-linecap:round;stroke-linejoin:round;stroke-opacity:1" />
      <rect
         id="rect6727"
         rx="5"
         height="69.841003"
         width="21.318399"
         y="25.145"
         x="55.605202"
         style="fill:#ff8080;stroke:#bd6161;stroke-width:2;stroke-linecap:round;stroke-linejoin:round;stroke-opacity:1" />
      <ellipse
         id="ellipse6729"
         ry="5.8543"
         rx="4.04636"
         cy="65.9198"
         cx="66.264397"
         style="fill:#ff8080;stroke:#bd6161;stroke-width:2;stroke-opacity:1" />
      <path
         id="path6731"
         d="M 55.7783,38.4563 H 75.924"
         inkscape:connector-curvature="0"
         style="fill:#ff8080;stroke:#bd6161;stroke-width:2;stroke-linecap:round;stroke-linejoin:round;stroke-opacity:1" />
      <path
         id="path6733"
         d="M 55.7776,42.9332 H 75.9233"
         inkscape:connector-curvature="0"
         style="fill:#ff8080;stroke:#bd6161;stroke-width:2;stroke-linecap:round;stroke-linejoin:round;stroke-opacity:1" />
      <rect
         id="rect6735"
         transform="rotate(-15,75.4763,28.8634)"
         rx="5"
         height="70.552902"
         width="22.0397"
         y="28.8634"
         x="75.476303"
         style="fill:#ff8080;stroke:#bd6161;stroke-opacity:1" />
      <ellipse
         id="ellipse6737"
         transform="rotate(-15,96.7696,65.7188)"
         ry="5.8543"
         rx="4.04636"
         cy="65.718803"
         cx="96.7696"
         style="fill:#ff8080;stroke:#bd6161;stroke-width:2;stroke-opacity:1" />
      <path
         id="path6739"
         d="M 80.8374,41.5554 98.3262,36.8693"
         inkscape:connector-curvature="0"
         style="fill:#ff8080;stroke:#bd6161;stroke-width:2;stroke-linecap:round;stroke-linejoin:round;stroke-opacity:1" />
      <path
         id="path6741"
         d="M 81.9963,45.8796 99.4851,41.1935"
         inkscape:connector-curvature="0"
         style="fill:#ff8080;stroke:#bd6161;stroke-width:2;stroke-linecap:round;stroke-linejoin:round;stroke-opacity:1" />
    </g>
    <flowRoot
       xml:space="preserve"
       id="flowRoot6771"
       style="fill:black;fill-opacity:1;stroke:none;font-family:Roboto;font-style:normal;font-weight:normal;font-size:40px;line-height:1.25;letter-spacing:0px;word-spacing:0px;-inkscape-font-specification:'Roboto, Normal';font-stretch:normal;font-variant:normal;text-anchor:start;text-align:start;writing-mode:lr;font-variant-ligatures:normal;font-variant-caps:normal;font-variant-numeric:normal;font-feature-settings:normal"><flowRegion
         id="flowRegion6773"><rect
           id="rect6775"
           width="773.9964"
           height="265.38666"
           x="494"
           y="468" /></flowRegion><flowPara
         id="flowPara6777" /></flowRoot>    <text
       xml:space="preserve"
       style="font-style:normal;font-variant:normal;font-weight:normal;font-stretch:normal;font-size:16.23999977px;line-height:1.25;font-family:Roboto;-inkscape-font-specification:'Roboto, Normal';font-variant-ligatures:normal;font-variant-caps:normal;font-variant-numeric:normal;font-feature-settings:normal;text-align:start;letter-spacing:0px;word-spacing:0px;writing-mode:lr-tb;text-anchor:start;fill:#800000;fill-opacity:1;stroke:none;stroke-width:0.40600002;"
       x="13.687851"
       y="265.00165"
       id="text1096"
       transform="scale(0.92545105,1.0805542)"><tspan
         sodipodi:role="line"
         id="tspan1094"
         x="13.687851"
         y="265.00165"
         style="stroke-width:0.40600002;fill:#800000;">Your New Place For Books</tspan></text>
  </g>
</svg>
