<?xml version="1.0" encoding="UTF-8" standalone="no"?>
<!-- Created with Inkscape (http://www.inkscape.org/) -->

<svg
   xmlns:dc="http://purl.org/dc/elements/1.1/"
   xmlns:cc="http://creativecommons.org/ns#"
   xmlns:rdf="http://www.w3.org/1999/02/22-rdf-syntax-ns#"
   xmlns:svg="http://www.w3.org/2000/svg"
   xmlns="http://www.w3.org/2000/svg"
   xmlns:sodipodi="http://sodipodi.sourceforge.net/DTD/sodipodi-0.dtd"
   xmlns:inkscape="http://www.inkscape.org/namespaces/inkscape"
   width="793.70081"
   height="400"
   viewBox="0 0 210 105.83334"
   version="1.1"
   id="svg186"
   inkscape:version="0.92.5 (2060ec1f9f, 2020-04-08)"
   sodipodi:docname="logo_fun1.svg">
  <defs
     id="defs180">
    <pattern
       id="EMFhbasepattern"
       patternUnits="userSpaceOnUse"
       width="6"
       height="6"
       x="0"
       y="0" />
    <pattern
       id="EMFhbasepattern-3"
       patternUnits="userSpaceOnUse"
       width="6"
       height="6"
       x="0"
       y="0" />
    <pattern
       id="EMFhbasepattern-2"
       patternUnits="userSpaceOnUse"
       width="6"
       height="6"
       x="0"
       y="0" />
    <pattern
       id="EMFhbasepattern-1"
       patternUnits="userSpaceOnUse"
       width="6"
       height="6"
       x="0"
       y="0" />
    <pattern
       id="EMFhbasepattern-5"
       patternUnits="userSpaceOnUse"
       width="6"
       height="6"
       x="0"
       y="0" />
  </defs>
  <sodipodi:namedview
     id="base"
     pagecolor="#ffffff"
     bordercolor="#666666"
     borderopacity="1.0"
     inkscape:pageopacity="0.0"
     inkscape:pageshadow="2"
     inkscape:zoom="0.5"
     inkscape:cx="498.14419"
     inkscape:cy="205.77533"
     inkscape:document-units="mm"
     inkscape:current-layer="text280"
     showgrid="false"
     units="px"
     inkscape:window-width="1920"
     inkscape:window-height="944"
     inkscape:window-x="0"
     inkscape:window-y="27"
     inkscape:window-maximized="1" />
  <metadata
     id="metadata183">
    <rdf:RDF>
      <cc:Work
         rdf:about="">
        <dc:format>image/svg+xml</dc:format>
        <dc:type
           rdf:resource="http://purl.org/dc/dcmitype/StillImage" />
        <dc:title></dc:title>
      </cc:Work>
    </rdf:RDF>
  </metadata>
  <g
     inkscape:label="Layer 1"
     inkscape:groupmode="layer"
     id="layer1"
     transform="translate(0,-191.16665)">
    <g
       transform="matrix(10.312849,0,0,8.503379,12.169725,-2256.6047)"
       id="layer1-6"
       inkscape:label="Guides">
      <path
         sodipodi:nodetypes="sssssssss"
         inkscape:connector-curvature="0"
         id="rect1110"
         d="m 2.340184,292.39319 c -0.144291,0 -0.2636719,0.11938 -0.2636719,0.26367 v 3.11328 c 0,0.14429 0.1193809,0.26563 0.2636719,0.26563 h 0.3046874 c 0.144291,0 0.265625,-0.12134 0.265625,-0.26563 v -3.11328 c 0,-0.14429 -0.121334,-0.26367 -0.265625,-0.26367 z"
         style="color:#000000;font-style:normal;font-variant:normal;font-weight:normal;font-stretch:normal;font-size:medium;line-height:normal;font-family:sans-serif;font-variant-ligatures:normal;font-variant-position:normal;font-variant-caps:normal;font-variant-numeric:normal;font-variant-alternates:normal;font-feature-settings:normal;text-indent:0;text-align:start;text-decoration:none;text-decoration-line:none;text-decoration-style:solid;text-decoration-color:#000000;letter-spacing:normal;word-spacing:normal;text-transform:none;writing-mode:lr-tb;direction:ltr;text-orientation:mixed;dominant-baseline:auto;baseline-shift:baseline;text-anchor:start;white-space:normal;shape-padding:0;clip-rule:nonzero;display:inline;overflow:visible;visibility:visible;opacity:1;isolation:auto;mix-blend-mode:normal;color-interpolation:sRGB;color-interpolation-filters:linearRGB;solid-color:#000000;solid-opacity:1;vector-effect:none;fill:#dba147;fill-opacity:1;fill-rule:nonzero;stroke:none;stroke-width:0.26458335;stroke-linecap:round;stroke-linejoin:miter;stroke-miterlimit:4;stroke-dasharray:none;stroke-dashoffset:0;stroke-opacity:1;paint-order:normal;color-rendering:auto;image-rendering:auto;shape-rendering:auto;text-rendering:auto;enable-background:accumulate" />
      <path
         sodipodi:nodetypes="sssssssss"
         inkscape:connector-curvature="0"
         id="rect1108"
         d="m 1.1038558,292.03381 c -0.14429085,0 -0.26562495,0.12134 -0.26562495,0.26563 v 3.4707 c 0,0.14429 0.1213341,0.26563 0.26562495,0.26563 h 0.9726563 c 0.1442909,0 0.2636719,-0.12134 0.2636719,-0.26563 v -3.4707 c 0,-0.14429 -0.119381,-0.26563 -0.2636719,-0.26563 z"
         style="color:#000000;font-style:normal;font-variant:normal;font-weight:normal;font-stretch:normal;font-size:medium;line-height:normal;font-family:sans-serif;font-variant-ligatures:normal;font-variant-position:normal;font-variant-caps:normal;font-variant-numeric:normal;font-variant-alternates:normal;font-feature-settings:normal;text-indent:0;text-align:start;text-decoration:none;text-decoration-line:none;text-decoration-style:solid;text-decoration-color:#000000;letter-spacing:normal;word-spacing:normal;text-transform:none;writing-mode:lr-tb;direction:ltr;text-orientation:mixed;dominant-baseline:auto;baseline-shift:baseline;text-anchor:start;white-space:normal;shape-padding:0;clip-rule:nonzero;display:inline;overflow:visible;visibility:visible;opacity:1;isolation:auto;mix-blend-mode:normal;color-interpolation:sRGB;color-interpolation-filters:linearRGB;solid-color:#000000;solid-opacity:1;vector-effect:none;fill:#ca7d73;fill-opacity:1;fill-rule:nonzero;stroke:none;stroke-width:0.26458335;stroke-linecap:round;stroke-linejoin:miter;stroke-miterlimit:4;stroke-dasharray:none;stroke-dashoffset:0;stroke-opacity:1;paint-order:normal;color-rendering:auto;image-rendering:auto;shape-rendering:auto;text-rendering:auto;enable-background:accumulate" />
      <path
         sodipodi:nodetypes="sssssssss"
         inkscape:connector-curvature="0"
         id="rect1112"
         d="m 2.9104964,291.48889 c -0.1442763,0 -0.265625,0.12134 -0.265625,0.26563 v 4.01562 c 0,0.14429 0.1213367,0.26563 0.265625,0.26563 h 0.5761719 c 0.1442884,0 0.2636719,-0.12134 0.2636719,-0.26563 v -4.01562 c 0,-0.14429 -0.1193835,-0.26563 -0.2636719,-0.26563 z"
         style="color:#000000;font-style:normal;font-variant:normal;font-weight:normal;font-stretch:normal;font-size:medium;line-height:normal;font-family:sans-serif;font-variant-ligatures:normal;font-variant-position:normal;font-variant-caps:normal;font-variant-numeric:normal;font-variant-alternates:normal;font-feature-settings:normal;text-indent:0;text-align:start;text-decoration:none;text-decoration-line:none;text-decoration-style:solid;text-decoration-color:#000000;letter-spacing:normal;word-spacing:normal;text-transform:none;writing-mode:lr-tb;direction:ltr;text-orientation:mixed;dominant-baseline:auto;baseline-shift:baseline;text-anchor:start;white-space:normal;shape-padding:0;clip-rule:nonzero;display:inline;overflow:visible;visibility:visible;opacity:1;isolation:auto;mix-blend-mode:normal;color-interpolation:sRGB;color-interpolation-filters:linearRGB;solid-color:#000000;solid-opacity:1;vector-effect:none;fill:#82c1a0;fill-opacity:1;fill-rule:nonzero;stroke:none;stroke-width:0.26458335;stroke-linecap:round;stroke-linejoin:miter;stroke-miterlimit:4;stroke-dasharray:none;stroke-dashoffset:0;stroke-opacity:1;paint-order:normal;color-rendering:auto;image-rendering:auto;shape-rendering:auto;text-rendering:auto;enable-background:accumulate" />
      <path
         sodipodi:nodetypes="ccccccccc"
         inkscape:connector-curvature="0"
         id="rect1114"
         d="m 3.7029585,292.26779 c -0.1391988,0.038 -0.2230176,0.18463 -0.1851304,0.32385 l 0.9185043,3.3753 c 0.037887,0.13923 0.1844016,0.22298 0.3236003,0.18499 l 0.5558382,-0.15172 c 0.1391987,-0.038 0.2249043,-0.18513 0.1870171,-0.32436 l -0.9185044,-3.3753 c -0.037887,-0.13922 -0.1862882,-0.22248 -0.325487,-0.18448 z"
         style="color:#000000;font-style:normal;font-variant:normal;font-weight:normal;font-stretch:normal;font-size:medium;line-height:normal;font-family:sans-serif;font-variant-ligatures:normal;font-variant-position:normal;font-variant-caps:normal;font-variant-numeric:normal;font-variant-alternates:normal;font-feature-settings:normal;text-indent:0;text-align:start;text-decoration:none;text-decoration-line:none;text-decoration-style:solid;text-decoration-color:#000000;letter-spacing:normal;word-spacing:normal;text-transform:none;writing-mode:lr-tb;direction:ltr;text-orientation:mixed;dominant-baseline:auto;baseline-shift:baseline;text-anchor:start;white-space:normal;shape-padding:0;clip-rule:nonzero;display:inline;overflow:visible;visibility:visible;opacity:1;isolation:auto;mix-blend-mode:normal;color-interpolation:sRGB;color-interpolation-filters:linearRGB;solid-color:#000000;solid-opacity:1;vector-effect:none;fill:#828ad3;fill-opacity:1;fill-rule:nonzero;stroke:none;stroke-width:0.26458338;stroke-linecap:round;stroke-linejoin:miter;stroke-miterlimit:4;stroke-dasharray:none;stroke-dashoffset:0;stroke-opacity:1;paint-order:normal;color-rendering:auto;image-rendering:auto;shape-rendering:auto;text-rendering:auto;enable-background:accumulate" />
      <path
         sodipodi:nodetypes="cccccccccc"
         inkscape:connector-curvature="0"
         id="rect1116"
         d="m 0.83823085,292.60413 v 0.13086 0.0801 0.26172 0.21094 H 2.340184 v -0.21094 -0.26172 -0.21093 z"
         style="color:#000000;font-style:normal;font-variant:normal;font-weight:normal;font-stretch:normal;font-size:medium;line-height:normal;font-family:sans-serif;font-variant-ligatures:normal;font-variant-position:normal;font-variant-caps:normal;font-variant-numeric:normal;font-variant-alternates:normal;font-feature-settings:normal;text-indent:0;text-align:start;text-decoration:none;text-decoration-line:none;text-decoration-style:solid;text-decoration-color:#000000;letter-spacing:normal;word-spacing:normal;text-transform:none;writing-mode:lr-tb;direction:ltr;text-orientation:mixed;dominant-baseline:auto;baseline-shift:baseline;text-anchor:start;white-space:normal;shape-padding:0;clip-rule:nonzero;display:inline;overflow:visible;visibility:visible;opacity:1;isolation:auto;mix-blend-mode:normal;color-interpolation:sRGB;color-interpolation-filters:linearRGB;solid-color:#000000;solid-opacity:1;vector-effect:none;fill:#f46c6c;fill-opacity:1;fill-rule:nonzero;stroke:none;stroke-width:0.26458335;stroke-linecap:round;stroke-linejoin:miter;stroke-miterlimit:4;stroke-dasharray:none;stroke-dashoffset:0;stroke-opacity:1;paint-order:normal;color-rendering:auto;image-rendering:auto;shape-rendering:auto;text-rendering:auto;enable-background:accumulate" />
      <path
         sodipodi:nodetypes="cccccccccc"
         inkscape:connector-curvature="0"
         id="rect1118"
         d="m 0.83823085,294.91663 v 0.13281 0.0801 0.26171 0.21094 H 2.340184 v -0.21094 -0.26171 -0.21289 z"
         style="color:#000000;font-style:normal;font-variant:normal;font-weight:normal;font-stretch:normal;font-size:medium;line-height:normal;font-family:sans-serif;font-variant-ligatures:normal;font-variant-position:normal;font-variant-caps:normal;font-variant-numeric:normal;font-variant-alternates:normal;font-feature-settings:normal;text-indent:0;text-align:start;text-decoration:none;text-decoration-line:none;text-decoration-style:solid;text-decoration-color:#000000;letter-spacing:normal;word-spacing:normal;text-transform:none;writing-mode:lr-tb;direction:ltr;text-orientation:mixed;dominant-baseline:auto;baseline-shift:baseline;text-anchor:start;white-space:normal;shape-padding:0;clip-rule:nonzero;display:inline;overflow:visible;visibility:visible;opacity:1;isolation:auto;mix-blend-mode:normal;color-interpolation:sRGB;color-interpolation-filters:linearRGB;solid-color:#000000;solid-opacity:1;vector-effect:none;fill:#f46c6c;fill-opacity:1;fill-rule:nonzero;stroke:none;stroke-width:0.26458335;stroke-linecap:round;stroke-linejoin:miter;stroke-miterlimit:4;stroke-dasharray:none;stroke-dashoffset:0;stroke-opacity:1;paint-order:normal;color-rendering:auto;image-rendering:auto;shape-rendering:auto;text-rendering:auto;enable-background:accumulate" />
      <path
         sodipodi:nodetypes="ccsssscc"
         inkscape:connector-curvature="0"
         id="rect1120"
         d="m 2.6456568,295.42447 v 0.13229 0.21446 c 0,0.14429 0.1203048,0.26458 0.2645834,0.26458 h 0.5761921 c 0.1442787,0 0.2645834,-0.12029 0.2645834,-0.26458 v -0.34675 z"
         style="color:#000000;font-style:normal;font-variant:normal;font-weight:normal;font-stretch:normal;font-size:medium;line-height:normal;font-family:sans-serif;font-variant-ligatures:normal;font-variant-position:normal;font-variant-caps:normal;font-variant-numeric:normal;font-variant-alternates:normal;font-feature-settings:normal;text-indent:0;text-align:start;text-decoration:none;text-decoration-line:none;text-decoration-style:solid;text-decoration-color:#000000;letter-spacing:normal;word-spacing:normal;text-transform:none;writing-mode:lr-tb;direction:ltr;text-orientation:mixed;dominant-baseline:auto;baseline-shift:baseline;text-anchor:start;white-space:normal;shape-padding:0;clip-rule:nonzero;display:inline;overflow:visible;visibility:visible;opacity:1;isolation:auto;mix-blend-mode:normal;color-interpolation:sRGB;color-interpolation-filters:linearRGB;solid-color:#000000;solid-opacity:1;vector-effect:none;fill:#d5b65d;fill-opacity:1;fill-rule:nonzero;stroke:none;stroke-width:0.26458335;stroke-linecap:round;stroke-linejoin:miter;stroke-miterlimit:4;stroke-dasharray:none;stroke-dashoffset:0;stroke-opacity:1;paint-order:normal;color-rendering:auto;image-rendering:auto;shape-rendering:auto;text-rendering:auto;enable-background:accumulate" />
      <path
         sodipodi:nodetypes="ssccsss"
         inkscape:connector-curvature="0"
         id="rect1122"
         d="m 2.9102402,291.48983 c -0.1442783,0 -0.2645834,0.12029 -0.2645834,0.26458 v 0.39584 h 1.1053589 v -0.39584 c 0,-0.14429 -0.1202928,-0.26458 -0.2645834,-0.26458 z"
         style="color:#000000;font-style:normal;font-variant:normal;font-weight:normal;font-stretch:normal;font-size:medium;line-height:normal;font-family:sans-serif;font-variant-ligatures:normal;font-variant-position:normal;font-variant-caps:normal;font-variant-numeric:normal;font-variant-alternates:normal;font-feature-settings:normal;text-indent:0;text-align:start;text-decoration:none;text-decoration-line:none;text-decoration-style:solid;text-decoration-color:#000000;letter-spacing:normal;word-spacing:normal;text-transform:none;writing-mode:lr-tb;direction:ltr;text-orientation:mixed;dominant-baseline:auto;baseline-shift:baseline;text-anchor:start;white-space:normal;shape-padding:0;clip-rule:nonzero;display:inline;overflow:visible;visibility:visible;opacity:1;isolation:auto;mix-blend-mode:normal;color-interpolation:sRGB;color-interpolation-filters:linearRGB;solid-color:#000000;solid-opacity:1;vector-effect:none;fill:#d5b65d;fill-opacity:1;fill-rule:nonzero;stroke:none;stroke-width:0.26458335;stroke-linecap:round;stroke-linejoin:miter;stroke-miterlimit:4;stroke-dasharray:none;stroke-dashoffset:0;stroke-opacity:1;paint-order:normal;color-rendering:auto;image-rendering:auto;shape-rendering:auto;text-rendering:auto;enable-background:accumulate" />
    </g>
    <g
       id="text280"
       style="font-style:normal;font-variant:normal;font-weight:normal;font-stretch:normal;font-size:41.68610382px;line-height:1.25;font-family:Chilanka;-inkscape-font-specification:'Chilanka, Normal';font-variant-ligatures:normal;font-variant-caps:normal;font-variant-numeric:normal;font-feature-settings:normal;text-align:start;letter-spacing:0px;word-spacing:0px;writing-mode:lr-tb;text-anchor:start;fill:#ff2a2a;fill-opacity:1;stroke:none;stroke-width:1.04216146"
       transform="scale(0.98736586,1.0127958)"
       aria-label="Booka ">
      <path
         inkscape:connector-curvature="0"
         id="path323"
         style="font-style:normal;font-variant:normal;font-weight:normal;font-stretch:normal;font-size:41.68610382px;font-family:Chilanka;-inkscape-font-specification:'Chilanka, Normal';font-variant-ligatures:normal;font-variant-caps:normal;font-variant-numeric:normal;font-feature-settings:normal;text-align:start;writing-mode:lr-tb;text-anchor:start;fill:#ff2a2a;stroke-width:1.16430354"
         d="m 91.915015,240.3805 c 3.505926,-1.01773 7.621579,-3.19566 7.621579,-6.41168 0,-0.6717 -0.177836,-1.38411 -0.584321,-2.15758 -2.184853,-4.0302 -9.196706,-6.00459 -16.691259,-6.00459 -1.117832,0 -2.235664,0.0407 -3.353494,0.12213 -0.787564,0.0611 -1.498911,0.63099 -1.498911,1.32304 l 0.152431,26.70516 c 0.0254,0.61064 0.635131,1.13986 1.321074,1.26198 2.743769,0.4478 5.335105,0.6717 7.774011,0.6717 5.208079,0 9.196706,-0.93631 11.96588,-2.80892 2.057825,-1.36376 3.048635,-2.97177 3.048635,-4.82403 0,-4.09126 -5.055651,-6.717 -9.755625,-7.87721 z m -11.127506,-0.95666 -0.07621,-10.9711 c 0.584321,-0.0204 1.168642,-0.0407 1.727558,-0.0407 5.563753,0 11.864259,1.46553 13.490195,4.43729 0.203243,0.34603 0.279458,0.69205 0.279458,1.01773 0,0.65134 -0.330268,1.26198 -0.990805,1.87262 -1.778369,1.608 -5.208079,2.6868 -10.314537,3.23637 -1.067021,0.12212 -1.956206,0.18319 -2.692959,0.2239 -0.736753,0.0407 -1.194047,0.12212 -1.422694,0.2239 z m 0.609726,2.4629 c 6.22429,0.0814 10.873453,0.97702 13.998301,2.70715 1.854585,1.01773 2.997821,2.34077 2.997821,3.68417 0,0.93631 -0.584322,1.89298 -1.879989,2.76822 -2.159448,1.44517 -5.512943,2.19829 -9.857243,2.19829 -1.803774,0 -3.734575,-0.12212 -5.792401,-0.40709 l -0.07621,-11.13393 c 0.152431,0.0611 0.355673,0.12212 0.609726,0.18319 z" />
      <path
         inkscape:connector-curvature="0"
         id="path325"
         style="font-style:normal;font-variant:normal;font-weight:normal;font-stretch:normal;font-size:41.68610382px;font-family:Chilanka;-inkscape-font-specification:'Chilanka, Normal';font-variant-ligatures:normal;font-variant-caps:normal;font-variant-numeric:normal;font-feature-settings:normal;text-align:start;writing-mode:lr-tb;text-anchor:start;fill:#ff2a2a;stroke-width:1.04216146"
         d="m 116.18343,234.09095 c -0.16284,-0.0611 -0.32568,-0.0814 -0.48851,-0.0611 -2.40184,0.10178 -4.53907,1.01773 -6.43204,2.74787 -1.89297,1.73013 -3.01247,3.92842 -3.39921,6.63558 -0.0814,0.56993 -0.12212,1.1195 -0.12212,1.64872 0,2.07616 0.59028,3.98949 1.73013,5.76033 1.70978,2.60538 4.478,4.57977 8.48785,4.57977 2.15758,0 4.21339,-0.65134 5.8214,-1.68942 2.5036,-1.60801 4.5187,-4.68155 4.5187,-8.40643 0,-2.50361 -0.65134,-4.53906 -1.81155,-6.20814 -2.15758,-3.13459 -4.9258,-4.80367 -8.30465,-5.00721 z m 7.44976,11.07287 c 0,1.48588 -0.38674,2.99212 -1.18057,4.23374 -1.18056,1.87262 -3.64346,3.37886 -6.43203,3.37886 -0.95666,0 -1.93368,-0.16284 -2.93105,-0.56993 -2.38149,-0.95666 -4.72226,-3.62311 -4.72226,-7.10373 0,-4.55942 3.17531,-8.18253 7.34799,-8.42679 0.10177,0.0407 0.2239,0.0611 0.32567,0.0611 3.82666,0.24425 7.59225,3.70452 7.59225,8.42678 z" />
      <path
         inkscape:connector-curvature="0"
         id="path327"
         style="font-style:normal;font-variant:normal;font-weight:normal;font-stretch:normal;font-size:41.68610382px;font-family:Chilanka;-inkscape-font-specification:'Chilanka, Normal';font-variant-ligatures:normal;font-variant-caps:normal;font-variant-numeric:normal;font-feature-settings:normal;text-align:start;writing-mode:lr-tb;text-anchor:start;fill:#ff2a2a;stroke-width:1.04216146"
         d="m 140.79207,234.09095 c -0.16284,-0.0611 -0.32567,-0.0814 -0.48851,-0.0611 -2.40183,0.10178 -4.53906,1.01773 -6.43203,2.74787 -1.89298,1.73013 -3.01248,3.92842 -3.39921,6.63558 -0.0814,0.56993 -0.12213,1.1195 -0.12213,1.64872 0,2.07616 0.59028,3.98949 1.73014,5.76033 1.70978,2.60538 4.478,4.57977 8.48784,4.57977 2.15758,0 4.21339,-0.65134 5.8214,-1.68942 2.50361,-1.60801 4.51871,-4.68155 4.51871,-8.40643 0,-2.50361 -0.65135,-4.53906 -1.81156,-6.20814 -2.15758,-3.13459 -4.9258,-4.80367 -8.30465,-5.00721 z m 7.44976,11.07287 c 0,1.48588 -0.38673,2.99212 -1.18056,4.23374 -1.18056,1.87262 -3.64346,3.37886 -6.43204,3.37886 -0.95666,0 -1.93368,-0.16284 -2.93105,-0.56993 -2.38148,-0.95666 -4.72225,-3.62311 -4.72225,-7.10373 0,-4.55942 3.1753,-8.18253 7.34799,-8.42679 0.10177,0.0407 0.2239,0.0611 0.32567,0.0611 3.82665,0.24425 7.59224,3.70452 7.59224,8.42678 z" />
      <path
         inkscape:connector-curvature="0"
         id="path329"
         style="font-style:normal;font-variant:normal;font-weight:normal;font-stretch:normal;font-size:41.68610382px;font-family:Chilanka;-inkscape-font-specification:'Chilanka, Normal';font-variant-ligatures:normal;font-variant-caps:normal;font-variant-numeric:normal;font-feature-settings:normal;text-align:start;writing-mode:lr-tb;text-anchor:start;fill:#ff2a2a;stroke-width:1.04216146"
         d="m 171.38495,255.36144 c 0.71241,0 1.32304,-0.61063 1.32304,-1.32304 0,-1.40446 -1.03808,-2.93105 -3.1346,-4.57977 -2.09651,-1.64872 -4.80367,-3.27708 -8.14181,-4.86474 1.62836,-1.05843 2.9107,-1.89297 4.7019,-3.62311 1.81155,-1.77084 2.70715,-3.23637 2.70715,-4.41693 0,-0.97702 -0.4478,-1.62837 -1.32304,-1.62837 -0.71241,0 -1.32305,0.61064 -1.32305,1.32305 0,0.65134 -0.71241,1.66907 -2.11687,3.03283 -1.40447,1.36375 -3.31779,2.7275 -5.76034,4.13197 -0.32567,0.20354 -0.52922,0.34603 -0.61063,0.40709 0.10177,-4.33552 0.28496,-9.99408 0.59028,-16.95534 0,-0.0407 0,-0.0814 0,-0.10177 0,-0.81418 -0.65135,-1.24163 -1.30269,-1.24163 -0.65135,0 -1.30269,0.4071 -1.32305,1.22128 -0.46815,11.11358 -0.71241,18.95008 -0.71241,23.50949 0,2.13723 0.0611,3.56205 0.16284,4.2541 0.12213,0.75312 0.69205,1.09915 1.26198,1.09915 0.6717,0 1.36375,-0.46816 1.36375,-1.26198 0,-0.0611 0,-0.14248 -0.0204,-0.2239 -0.0814,-0.63099 -0.14248,-1.93368 -0.14248,-3.96914 0,-1.22127 0.0203,-2.70715 0.0611,-4.45764 0.14248,0.12212 0.28497,0.2239 0.4478,0.28496 4.21339,1.83191 7.59225,3.76559 10.17727,5.80105 1.20092,0.95666 1.7912,1.77084 1.7912,2.44254 0,0.54957 0.71241,1.13985 1.32305,1.13985 z" />
      <path
         inkscape:connector-curvature="0"
         id="path331"
         style="font-style:normal;font-variant:normal;font-weight:normal;font-stretch:normal;font-size:41.68610382px;font-family:Chilanka;-inkscape-font-specification:'Chilanka, Normal';font-variant-ligatures:normal;font-variant-caps:normal;font-variant-numeric:normal;font-feature-settings:normal;text-align:start;writing-mode:lr-tb;text-anchor:start;fill:#ff2a2a;stroke-width:1.04216146"
         d="m 194.77232,241.0522 c -0.26461,-2.80893 -1.36376,-4.74261 -3.3585,-5.80104 -1.1195,-0.59029 -2.32042,-0.8956 -3.60276,-0.8956 -1.01772,0 -2.07616,0.18319 -3.17531,0.54957 -2.86999,0.91595 -5.02757,2.76822 -6.43203,5.53643 -0.95667,1.89298 -1.44517,3.86737 -1.44517,5.94353 0,3.21602 0.95666,5.71963 2.60538,7.26657 0.91595,0.85489 2.21864,1.50624 3.76559,1.50624 0.52922,0 1.07879,-0.0814 1.66907,-0.24426 0.95666,-0.10177 1.87262,-0.50886 2.76822,-1.22127 1.46552,-1.18056 2.84963,-2.80892 4.15232,-4.90544 0.0204,2.38148 0.24426,4.37622 0.6717,5.94352 0.1832,0.6717 0.69206,0.95667 1.22128,0.95667 0.6717,0 1.38411,-0.48851 1.38411,-1.24163 0,-0.12213 -0.0204,-0.24425 -0.0611,-0.38674 -0.38673,-1.46552 -0.59028,-3.3585 -0.59028,-5.71962 0,-1.68943 0.10177,-3.60276 0.30532,-5.73998 0.12213,-0.40709 0.18319,-0.75312 0.18319,-1.07879 0,-0.16284 -0.0204,-0.32568 -0.0611,-0.46816 z m -2.64609,0.18319 c -0.0204,0.28497 -0.0611,0.56993 -0.0814,0.83454 -1.26198,3.76559 -3.94878,7.75508 -5.98424,9.36309 -0.69205,0.54957 -1.13985,0.81418 -1.36375,0.83453 -0.59028,0.0611 -1.01773,0.2239 -1.54695,0.2239 -0.77347,0 -1.46553,-0.28496 -2.07616,-0.85489 -0.97702,-0.91595 -1.66907,-2.86999 -1.66907,-5.21076 0,-1.66907 0.40709,-3.31779 1.26198,-4.98686 1.01772,-1.99475 2.60538,-3.31779 4.78332,-4.00985 0.8956,-0.28496 1.70978,-0.42744 2.44254,-0.42744 2.50361,0 3.98949,1.62836 4.23375,4.23374 z" />
      <text
         xml:space="preserve"
         style="font-style:normal;font-variant:normal;font-weight:normal;font-stretch:normal;font-size:18.32740593px;line-height:1.25;font-family:Roboto;-inkscape-font-specification:'Roboto, Normal';font-variant-ligatures:normal;font-variant-caps:normal;font-variant-numeric:normal;font-feature-settings:normal;text-align:start;letter-spacing:0px;word-spacing:0px;writing-mode:lr-tb;text-anchor:start;fill:#a02c2c;fill-opacity:1;stroke:none;stroke-width:0.47750291"
         x="20.589296"
         y="252.49689"
         id="text342"
         transform="scale(0.88307318,1.132409)"><tspan
           sodipodi:role="line"
           id="tspan340"
           x="20.589296"
           y="252.49689"
           style="fill:#a02c2c;stroke-width:0.47750291">Your new <tspan
   style="font-style:normal;font-variant:normal;font-weight:bold;font-stretch:normal;font-size:18.32744789px;font-family:Roboto;-inkscape-font-specification:'Roboto, Bold';font-variant-ligatures:normal;font-variant-caps:normal;font-variant-numeric:normal;font-feature-settings:normal;text-align:start;writing-mode:lr-tb;text-anchor:start;stroke-width:0.47750291"
   id="tspan346">place</tspan> for books</tspan><tspan
           sodipodi:role="line"
           x="20.589296"
           y="275.40616"
           style="fill:#a02c2c;stroke-width:0.47750291"
           id="tspan344" /></text>
    </g>
    <flowRoot
       xml:space="preserve"
       id="flowRoot286"
       style="fill:black;fill-opacity:1;stroke:none;font-family:Roboto;font-style:normal;font-weight:normal;font-size:40px;line-height:1.25;letter-spacing:0px;word-spacing:0px;-inkscape-font-specification:'Roboto, Normal';font-stretch:normal;font-variant:normal;text-anchor:start;text-align:start;writing-mode:lr;font-variant-ligatures:normal;font-variant-caps:normal;font-variant-numeric:normal;font-feature-settings:normal"><flowRegion
         id="flowRegion288"><rect
           id="rect290"
           width="836.5"
           height="74.5"
           x="401.5"
           y="128" /></flowRegion><flowPara
         id="flowPara292"></flowPara></flowRoot>    <flowRoot
       xml:space="preserve"
       id="flowRoot294"
       style="fill:black;fill-opacity:1;stroke:none;font-family:Roboto;font-style:normal;font-weight:normal;font-size:40px;line-height:1.25;letter-spacing:0px;word-spacing:0px;-inkscape-font-specification:'Roboto, Normal';font-stretch:normal;font-variant:normal;text-anchor:start;text-align:start;writing-mode:lr;font-variant-ligatures:normal;font-variant-caps:normal;font-variant-numeric:normal;font-feature-settings:normal"><flowRegion
         id="flowRegion296"><rect
           id="rect298"
           width="328.5"
           height="65.5"
           x="366"
           y="85.5" /></flowRegion><flowPara
         id="flowPara300"></flowPara></flowRoot>    <flowRoot
       xml:space="preserve"
       id="flowRoot302"
       style="fill:black;fill-opacity:1;stroke:none;font-family:Roboto;font-style:normal;font-weight:normal;font-size:40px;line-height:1.25;letter-spacing:0px;word-spacing:0px;-inkscape-font-specification:'Roboto, Normal';font-stretch:normal;font-variant:normal;text-anchor:start;text-align:start;writing-mode:lr;font-variant-ligatures:normal;font-variant-caps:normal;font-variant-numeric:normal;font-feature-settings:normal"><flowRegion
         id="flowRegion304"><rect
           id="rect306"
           width="309"
           height="123"
           x="375"
           y="63" /></flowRegion><flowPara
         id="flowPara308"></flowPara></flowRoot>  </g>
</svg>
